<?xml version="1.0" encoding="UTF-8"?>
<svg xmlns="http://www.w3.org/2000/svg" width="120" height="80" viewBox="0 0 120 80" fill="none">
    <rect width="120" height="80" rx="6" fill="#f1f5f9"/>
    <circle cx="24" cy="22" r="5" fill="#0ea5e9"/>
    <path d="M22 20 Q24 18 26 20 Q24 22 22 20" stroke="white" stroke-width="1.2" fill="none"/>
    <rect x="36" y="20" width="60" height="3" rx="1.5" fill="#94a3b8"/>
    <rect x="36" y="25" width="54" height="2" rx="1" fill="#cbd5e1"/>
    <circle cx="24" cy="40" r="5" fill="#0ea5e9"/>
    <path d="M22 38 Q24 36 26 38 Q24 40 22 38" stroke="white" stroke-width="1.2" fill="none"/>
    <rect x="36" y="38" width="66" height="3" rx="1.5" fill="#94a3b8"/>
    <rect x="36" y="43" width="48" height="2" rx="1" fill="#cbd5e1"/>
    <circle cx="24" cy="58" r="5" fill="#0ea5e9"/>
    <path d="M22 56 Q24 54 26 56 Q24 58 22 56" stroke="white" stroke-width="1.2" fill="none"/>
    <rect x="36" y="56" width="57" height="3" rx="1.5" fill="#94a3b8"/>
    <rect x="36" y="61" width="42" height="2" rx="1" fill="#cbd5e1"/>
</svg>