<svg width="400" height="600" viewBox="0 0 400 600" fill="none" xmlns="http://www.w3.org/2000/svg">
  <rect width="400" height="600" fill="#1f1f1f"/>

  <rect x="20" y="20" width="360" height="150" rx="12" fill="url(#influencerGradient)"/>
  <circle cx="200" cy="65" r="35" fill="rgba(255,255,255,0.2)"/>
  <rect x="100" y="110" width="200" height="10" rx="5" fill="rgba(255,255,255,0.95)"/>
  <rect x="130" y="128" width="140" height="6" rx="3" fill="rgba(255,255,255,0.6)"/>
  <rect x="150" y="145" width="100" height="5" rx="2" fill="rgba(255,255,255,0.3)"/>

  <rect x="20" y="185" width="360" height="70" rx="8" fill="#2d2d2d"/>
  <rect x="40" y="205" width="75" height="35" rx="4" fill="#3d3d3d"/>
  <rect x="125" y="205" width="75" height="35" rx="4" fill="#3d3d3d"/>
  <rect x="210" y="205" width="75" height="35" rx="4" fill="#3d3d3d"/>
  <rect x="295" y="205" width="70" height="35" rx="4" fill="#3d3d3d"/>

  <rect x="20" y="270" width="115" height="100" rx="8" fill="#2d2d2d"/>
  <rect x="35" y="285" width="85" height="70" rx="4" fill="url(#contentCard1)"/>
  <rect x="143" y="270" width="115" height="100" rx="8" fill="#2d2d2d"/>
  <rect x="158" y="285" width="85" height="70" rx="4" fill="url(#contentCard2)"/>
  <rect x="266" y="270" width="114" height="100" rx="8" fill="#2d2d2d"/>
  <rect x="281" y="285" width="84" height="70" rx="4" fill="url(#contentCard3)"/>

  <rect x="20" y="385" width="360" height="90" rx="8" fill="#2d2d2d"/>
  <rect x="40" y="405" width="100" height="7" rx="3" fill="#ec4899"/>
  <rect x="40" y="425" width="320" height="5" rx="2" fill="#4a4a4a"/>
  <rect x="40" y="440" width="280" height="5" rx="2" fill="#4a4a4a"/>
  <rect x="40" y="455" width="100" height="5" rx="2" fill="#f472b6"/>

  <rect x="20" y="490" width="360" height="90" rx="12" fill="url(#influencerCta)"/>
  <rect x="80" y="515" width="240" height="10" rx="5" fill="rgba(255,255,255,0.95)"/>
  <rect x="130" y="545" width="140" height="28" rx="14" fill="white"/>

  <defs>
    <linearGradient id="influencerGradient" x1="0%" y1="0%" x2="100%" y2="100%">
      <stop offset="0%" style="stop-color:#ec4899"/>
      <stop offset="50%" style="stop-color:#8b5cf6"/>
      <stop offset="100%" style="stop-color:#06b6d4"/>
    </linearGradient>
    <linearGradient id="contentCard1" x1="0%" y1="0%" x2="100%" y2="100%">
      <stop offset="0%" style="stop-color:#ec4899"/>
      <stop offset="100%" style="stop-color:#f472b6"/>
    </linearGradient>
    <linearGradient id="contentCard2" x1="0%" y1="0%" x2="100%" y2="100%">
      <stop offset="0%" style="stop-color:#8b5cf6"/>
      <stop offset="100%" style="stop-color:#a78bfa"/>
    </linearGradient>
    <linearGradient id="contentCard3" x1="0%" y1="0%" x2="100%" y2="100%">
      <stop offset="0%" style="stop-color:#06b6d4"/>
      <stop offset="100%" style="stop-color:#22d3ee"/>
    </linearGradient>
    <linearGradient id="influencerCta" x1="0%" y1="0%" x2="100%" y2="100%">
      <stop offset="0%" style="stop-color:#ec4899"/>
      <stop offset="100%" style="stop-color:#8b5cf6"/>
    </linearGradient>
  </defs>
</svg>
