<svg width="400" height="600" viewBox="0 0 400 600" fill="none" xmlns="http://www.w3.org/2000/svg">
  <rect width="400" height="600" fill="#fdf4ff"/>

  <circle cx="200" cy="70" r="45" fill="#fae8ff"/>
  <circle cx="200" cy="70" r="43" stroke="url(#influencerRing)" stroke-width="3" fill="none"/>
  <rect x="110" y="130" width="180" height="12" rx="6" fill="#1f1f1f"/>
  <rect x="130" y="150" width="140" height="7" rx="3" fill="#64748b"/>

  <rect x="50" y="185" width="90" height="45" rx="6" fill="white" stroke="#f5d0fe" stroke-width="1"/>
  <rect x="155" y="185" width="90" height="45" rx="6" fill="white" stroke="#f5d0fe" stroke-width="1"/>
  <rect x="260" y="185" width="90" height="45" rx="6" fill="white" stroke="#f5d0fe" stroke-width="1"/>

  <rect x="40" y="255" width="80" height="7" rx="3" fill="#ec4899"/>

  <rect x="40" y="275" width="155" height="85" rx="8" fill="white" stroke="#f5d0fe" stroke-width="1"/>
  <rect x="55" y="290" width="125" height="55" rx="6" fill="url(#minimalContent1)"/>

  <rect x="205" y="275" width="155" height="85" rx="8" fill="white" stroke="#f5d0fe" stroke-width="1"/>
  <rect x="220" y="290" width="125" height="55" rx="6" fill="url(#minimalContent2)"/>

  <rect x="40" y="370" width="320" height="50" rx="8" fill="white" stroke="#f5d0fe" stroke-width="1"/>
  <rect x="60" y="385" width="120" height="6" rx="3" fill="#1f1f1f"/>
  <rect x="60" y="400" width="200" height="5" rx="2" fill="#94a3b8"/>

  <rect x="40" y="430" width="320" height="50" rx="8" fill="white" stroke="#f5d0fe" stroke-width="1"/>
  <rect x="60" y="445" width="100" height="6" rx="3" fill="#1f1f1f"/>
  <rect x="60" y="460" width="180" height="5" rx="2" fill="#94a3b8"/>

  <rect x="40" y="505" width="320" height="75" rx="12" fill="url(#influencerMinimalCta)"/>
  <rect x="100" y="525" width="200" height="10" rx="5" fill="rgba(255,255,255,0.95)"/>
  <rect x="140" y="548" width="120" height="25" rx="12" fill="white"/>

  <defs>
    <linearGradient id="influencerRing" x1="0%" y1="0%" x2="100%" y2="100%">
      <stop offset="0%" style="stop-color:#ec4899"/>
      <stop offset="50%" style="stop-color:#8b5cf6"/>
      <stop offset="100%" style="stop-color:#06b6d4"/>
    </linearGradient>
    <linearGradient id="minimalContent1" x1="0%" y1="0%" x2="100%" y2="100%">
      <stop offset="0%" style="stop-color:#fce7f3"/>
      <stop offset="100%" style="stop-color:#fdf4ff"/>
    </linearGradient>
    <linearGradient id="minimalContent2" x1="0%" y1="0%" x2="100%" y2="100%">
      <stop offset="0%" style="stop-color:#ede9fe"/>
      <stop offset="100%" style="stop-color:#fdf4ff"/>
    </linearGradient>
    <linearGradient id="influencerMinimalCta" x1="0%" y1="0%" x2="100%" y2="100%">
      <stop offset="0%" style="stop-color:#ec4899"/>
      <stop offset="100%" style="stop-color:#8b5cf6"/>
    </linearGradient>
  </defs>
</svg>
