<svg width="400" height="600" viewBox="0 0 400 600" fill="none" xmlns="http://www.w3.org/2000/svg">
  <!-- Background -->
  <rect width="400" height="600" fill="#0f172a"/>

  <!-- Split Hero -->
  <rect x="20" y="20" width="175" height="180" rx="8" fill="#1e293b"/>
  <circle cx="107" cy="90" r="45" fill="url(#speakerPhoto)"/>
  <rect x="50" y="150" width="115" height="8" rx="4" fill="#f59e0b"/>

  <rect x="205" y="20" width="175" height="180" rx="8" fill="url(#speakerHero)"/>
  <rect x="225" y="50" width="130" height="10" rx="5" fill="rgba(255,255,255,0.9)"/>
  <rect x="225" y="70" width="100" height="6" rx="3" fill="rgba(255,255,255,0.5)"/>
  <rect x="225" y="90" width="130" height="4" rx="2" fill="rgba(255,255,255,0.3)"/>
  <rect x="225" y="100" width="110" height="4" rx="2" fill="rgba(255,255,255,0.3)"/>
  <rect x="225" y="130" width="80" height="24" rx="12" fill="white"/>
  <rect x="315" y="130" width="50" height="24" rx="12" fill="rgba(255,255,255,0.2)"/>

  <!-- Stats -->
  <rect x="20" y="215" width="360" height="55" rx="8" fill="#1e293b"/>
  <rect x="40" y="228" width="70" height="28" rx="4" fill="#334155"/>
  <rect x="125" y="228" width="70" height="28" rx="4" fill="#334155"/>
  <rect x="210" y="228" width="70" height="28" rx="4" fill="#334155"/>
  <rect x="295" y="228" width="70" height="28" rx="4" fill="#334155"/>

  <!-- Two Column Topics -->
  <rect x="20" y="285" width="175" height="130" rx="8" fill="#1e293b"/>
  <rect x="40" y="305" width="80" height="7" rx="3" fill="#f59e0b"/>
  <rect x="40" y="325" width="135" height="20" rx="4" fill="#334155"/>
  <rect x="40" y="355" width="135" height="20" rx="4" fill="#334155"/>
  <rect x="40" y="385" width="135" height="20" rx="4" fill="#334155"/>

  <rect x="205" y="285" width="175" height="130" rx="8" fill="#1e293b"/>
  <rect x="225" y="305" width="100" height="7" rx="3" fill="#ef4444"/>
  <rect x="225" y="322" width="135" height="5" rx="2" fill="#475569"/>
  <rect x="225" y="335" width="120" height="5" rx="2" fill="#475569"/>
  <rect x="225" y="355" width="135" height="5" rx="2" fill="#475569"/>
  <rect x="225" y="368" width="125" height="5" rx="2" fill="#475569"/>
  <rect x="225" y="388" width="135" height="5" rx="2" fill="#475569"/>
  <rect x="225" y="401" width="110" height="5" rx="2" fill="#475569"/>

  <!-- Testimonials -->
  <rect x="20" y="430" width="360" height="70" rx="8" fill="#1e293b"/>
  <rect x="40" y="448" width="280" height="5" rx="2" fill="#475569"/>
  <rect x="40" y="460" width="240" height="5" rx="2" fill="#475569"/>
  <rect x="40" y="478" width="80" height="5" rx="2" fill="#f59e0b"/>

  <!-- CTA Split -->
  <rect x="20" y="515" width="175" height="65" rx="8" fill="url(#ctaSpeakerSplit)"/>
  <rect x="40" y="535" width="120" height="8" rx="4" fill="rgba(255,255,255,0.9)"/>

  <rect x="205" y="515" width="175" height="65" rx="8" fill="#1e293b"/>
  <rect x="225" y="535" width="135" height="26" rx="13" fill="#f59e0b"/>

  <defs>
    <linearGradient id="speakerPhoto" x1="0%" y1="0%" x2="100%" y2="100%">
      <stop offset="0%" style="stop-color:#334155"/>
      <stop offset="100%" style="stop-color:#1e293b"/>
    </linearGradient>
    <linearGradient id="speakerHero" x1="0%" y1="0%" x2="100%" y2="100%">
      <stop offset="0%" style="stop-color:#f59e0b"/>
      <stop offset="100%" style="stop-color:#ef4444"/>
    </linearGradient>
    <linearGradient id="ctaSpeakerSplit" x1="0%" y1="0%" x2="100%" y2="100%">
      <stop offset="0%" style="stop-color:#ef4444"/>
      <stop offset="100%" style="stop-color:#f59e0b"/>
    </linearGradient>
  </defs>
</svg>
