<svg xmlns="http://www.w3.org/2000/svg" width="64" height="64" viewBox="0 0 64 64" fill="none">
  <rect width="64" height="64" rx="12" fill="#3B82F6" opacity="0.1"/>
  <path d="M32 8C37.5228 8 42 12.4772 42 18C42 23.5228 37.5228 28 32 28C26.4772 28 22 23.5228 22 18C22 12.4772 26.4772 8 32 8Z" fill="#3B82F6"/>
  <path d="M16 36H20V48H16C14.8954 48 14 47.1046 14 46V38C14 36.8954 14.8954 36 16 36Z" fill="#3B82F6" opacity="0.7"/>
  <path d="M24 32H40C42.2091 32 44 33.7909 44 36V46C44 47.1046 43.1046 48 42 48H24V32Z" fill="#3B82F6" opacity="0.8"/>
  <path d="M48 36H52C53.1046 36 54 36.8954 54 38V46C54 47.1046 53.1046 48 52 48H48V36Z" fill="#3B82F6" opacity="0.7"/>
  <circle cx="18" cy="20" r="2" fill="#3B82F6" opacity="0.6"/>
  <circle cx="46" cy="20" r="2" fill="#3B82F6" opacity="0.6"/>
  <circle cx="32" cy="54" r="2" fill="#3B82F6" opacity="0.6"/>
  <text x="32" y="58" text-anchor="middle" font-family="Arial, sans-serif" font-size="8" fill="#3B82F6" opacity="0.8">WHO WHAT HOW</text>
</svg>