<?xml version="1.0" encoding="UTF-8"?>
<svg width="160" height="100" viewBox="0 0 160 100" xmlns="http://www.w3.org/2000/svg">
  <!-- Booking Calendar Component Preview -->
  <rect width="160" height="100" fill="#f8fafc"/>
  
  <!-- Calendar Header -->
  <rect x="20" y="15" width="120" height="15" rx="2" fill="#4299e1"/>
  
  <!-- Days Header -->
  <rect x="22" y="35" width="16" height="10" rx="2" fill="#e2e8f0"/>
  <rect x="42" y="35" width="16" height="10" rx="2" fill="#e2e8f0"/>
  <rect x="62" y="35" width="16" height="10" rx="2" fill="#e2e8f0"/>
  <rect x="82" y="35" width="16" height="10" rx="2" fill="#e2e8f0"/>
  <rect x="102" y="35" width="16" height="10" rx="2" fill="#e2e8f0"/>
  <rect x="122" y="35" width="16" height="10" rx="2" fill="#e2e8f0"/>
  
  <!-- Week 1 -->
  <rect x="22" y="50" width="16" height="10" rx="2" fill="#e2e8f0"/>
  <rect x="42" y="50" width="16" height="10" rx="2" fill="#e2e8f0"/>
  <rect x="62" y="50" width="16" height="10" rx="2" fill="#48bb78" stroke="#2f855a" stroke-width="1"/>
  <rect x="82" y="50" width="16" height="10" rx="2" fill="#e2e8f0"/>
  <rect x="102" y="50" width="16" height="10" rx="2" fill="#e2e8f0"/>
  <rect x="122" y="50" width="16" height="10" rx="2" fill="#e2e8f0"/>
  
  <!-- Week 2 -->
  <rect x="22" y="65" width="16" height="10" rx="2" fill="#e2e8f0"/>
  <rect x="42" y="65" width="16" height="10" rx="2" fill="#4299e1" stroke="#2c5282" stroke-width="1"/>
  <rect x="62" y="65" width="16" height="10" rx="2" fill="#e2e8f0"/>
  <rect x="82" y="65" width="16" height="10" rx="2" fill="#e2e8f0"/>
  <rect x="102" y="65" width="16" height="10" rx="2" fill="#e2e8f0"/>
  <rect x="122" y="65" width="16" height="10" rx="2" fill="#e2e8f0"/>
  
  <!-- Week 3 -->
  <rect x="22" y="80" width="16" height="10" rx="2" fill="#e2e8f0"/>
  <rect x="42" y="80" width="16" height="10" rx="2" fill="#e2e8f0"/>
  <rect x="62" y="80" width="16" height="10" rx="2" fill="#e2e8f0"/>
  <rect x="82" y="80" width="16" height="10" rx="2" fill="#e2e8f0"/>
  <rect x="102" y="80" width="16" height="10" rx="2" fill="#4299e1" stroke="#2c5282" stroke-width="1"/>
  <rect x="122" y="80" width="16" height="10" rx="2" fill="#e2e8f0"/>
</svg>
