<svg width="400" height="600" viewBox="0 0 400 600" fill="none" xmlns="http://www.w3.org/2000/svg">
  <rect width="400" height="600" fill="#022c22"/>

  <!-- Hero -->
  <rect x="20" y="20" width="360" height="150" rx="12" fill="url(#consultGradient)"/>
  <circle cx="200" cy="65" r="35" fill="rgba(255,255,255,0.15)"/>
  <rect x="100" y="110" width="200" height="10" rx="5" fill="rgba(255,255,255,0.9)"/>
  <rect x="120" y="128" width="160" height="6" rx="3" fill="rgba(255,255,255,0.5)"/>
  <rect x="140" y="145" width="120" height="5" rx="2" fill="rgba(255,255,255,0.3)"/>

  <!-- Stats -->
  <rect x="20" y="185" width="360" height="70" rx="8" fill="#064e3b"/>
  <rect x="40" y="205" width="75" height="35" rx="4" fill="#065f46"/>
  <rect x="125" y="205" width="75" height="35" rx="4" fill="#065f46"/>
  <rect x="210" y="205" width="75" height="35" rx="4" fill="#065f46"/>
  <rect x="295" y="205" width="70" height="35" rx="4" fill="#065f46"/>

  <!-- Services Grid -->
  <rect x="20" y="270" width="115" height="90" rx="8" fill="#064e3b"/>
  <rect x="35" y="285" width="60" height="6" rx="3" fill="#10b981"/>
  <rect x="35" y="300" width="85" height="4" rx="2" fill="#047857"/>
  <rect x="35" y="312" width="75" height="4" rx="2" fill="#047857"/>
  <rect x="35" y="324" width="80" height="4" rx="2" fill="#047857"/>

  <rect x="143" y="270" width="115" height="90" rx="8" fill="#064e3b"/>
  <rect x="158" y="285" width="70" height="6" rx="3" fill="#10b981"/>
  <rect x="158" y="300" width="85" height="4" rx="2" fill="#047857"/>
  <rect x="158" y="312" width="75" height="4" rx="2" fill="#047857"/>
  <rect x="158" y="324" width="80" height="4" rx="2" fill="#047857"/>

  <rect x="266" y="270" width="114" height="90" rx="8" fill="#064e3b"/>
  <rect x="281" y="285" width="65" height="6" rx="3" fill="#10b981"/>
  <rect x="281" y="300" width="85" height="4" rx="2" fill="#047857"/>
  <rect x="281" y="312" width="75" height="4" rx="2" fill="#047857"/>
  <rect x="281" y="324" width="80" height="4" rx="2" fill="#047857"/>

  <!-- Testimonials -->
  <rect x="20" y="375" width="360" height="100" rx="8" fill="#064e3b"/>
  <rect x="40" y="395" width="100" height="7" rx="3" fill="#10b981"/>
  <rect x="40" y="415" width="320" height="5" rx="2" fill="#047857"/>
  <rect x="40" y="430" width="280" height="5" rx="2" fill="#047857"/>
  <rect x="40" y="445" width="300" height="5" rx="2" fill="#047857"/>
  <rect x="40" y="460" width="100" height="5" rx="2" fill="#34d399"/>

  <!-- CTA -->
  <rect x="20" y="490" width="360" height="90" rx="12" fill="url(#consultCta)"/>
  <rect x="80" y="515" width="240" height="10" rx="5" fill="rgba(255,255,255,0.95)"/>
  <rect x="120" y="535" width="160" height="7" rx="3" fill="rgba(255,255,255,0.5)"/>
  <rect x="130" y="555" width="140" height="28" rx="14" fill="white"/>

  <defs>
    <linearGradient id="consultGradient" x1="0%" y1="0%" x2="100%" y2="100%">
      <stop offset="0%" style="stop-color:#10b981"/>
      <stop offset="100%" style="stop-color:#059669"/>
    </linearGradient>
    <linearGradient id="consultCta" x1="0%" y1="0%" x2="100%" y2="100%">
      <stop offset="0%" style="stop-color:#059669"/>
      <stop offset="100%" style="stop-color:#10b981"/>
    </linearGradient>
  </defs>
</svg>
