<svg width="400" height="600" viewBox="0 0 400 600" fill="none" xmlns="http://www.w3.org/2000/svg">
  <rect width="400" height="600" fill="#1e1b4b"/>

  <!-- Split Hero -->
  <rect x="20" y="20" width="175" height="180" rx="8" fill="#312e81"/>
  <rect x="60" y="50" width="95" height="130" rx="6" fill="url(#bookCover)"/>
  <rect x="70" y="60" width="75" height="110" fill="#4f46e5"/>

  <rect x="205" y="20" width="175" height="180" rx="8" fill="url(#authorHeroGrad)"/>
  <rect x="225" y="50" width="130" height="10" rx="5" fill="rgba(255,255,255,0.9)"/>
  <rect x="225" y="70" width="100" height="6" rx="3" fill="rgba(255,255,255,0.5)"/>
  <rect x="225" y="95" width="130" height="4" rx="2" fill="rgba(255,255,255,0.3)"/>
  <rect x="225" y="107" width="115" height="4" rx="2" fill="rgba(255,255,255,0.3)"/>
  <rect x="225" y="135" width="80" height="22" rx="11" fill="white"/>
  <rect x="315" y="135" width="50" height="22" rx="11" fill="rgba(255,255,255,0.2)"/>

  <!-- Stats -->
  <rect x="20" y="215" width="360" height="55" rx="8" fill="#312e81"/>
  <rect x="40" y="228" width="70" height="28" rx="4" fill="#3730a3"/>
  <rect x="125" y="228" width="70" height="28" rx="4" fill="#3730a3"/>
  <rect x="210" y="228" width="70" height="28" rx="4" fill="#3730a3"/>
  <rect x="295" y="228" width="70" height="28" rx="4" fill="#3730a3"/>

  <!-- Two Column Content -->
  <rect x="20" y="285" width="175" height="120" rx="8" fill="#312e81"/>
  <rect x="40" y="305" width="80" height="7" rx="3" fill="#818cf8"/>
  <rect x="40" y="325" width="135" height="5" rx="2" fill="#4f46e5"/>
  <rect x="40" y="340" width="120" height="5" rx="2" fill="#4f46e5"/>
  <rect x="40" y="355" width="130" height="5" rx="2" fill="#4f46e5"/>
  <rect x="40" y="370" width="110" height="5" rx="2" fill="#4f46e5"/>
  <rect x="40" y="385" width="125" height="5" rx="2" fill="#4f46e5"/>

  <rect x="205" y="285" width="175" height="120" rx="8" fill="#312e81"/>
  <rect x="225" y="305" width="100" height="7" rx="3" fill="#7c3aed"/>
  <rect x="225" y="325" width="135" height="20" rx="4" fill="#3730a3"/>
  <rect x="225" y="355" width="135" height="20" rx="4" fill="#3730a3"/>
  <rect x="225" y="385" width="135" height="16" rx="4" fill="#3730a3"/>

  <!-- Testimonials -->
  <rect x="20" y="420" width="360" height="70" rx="8" fill="#312e81"/>
  <rect x="40" y="440" width="280" height="5" rx="2" fill="#4f46e5"/>
  <rect x="40" y="455" width="250" height="5" rx="2" fill="#4f46e5"/>
  <rect x="40" y="472" width="100" height="5" rx="2" fill="#818cf8"/>

  <!-- CTA -->
  <rect x="20" y="505" width="175" height="75" rx="8" fill="url(#authorCtaSplit)"/>
  <rect x="40" y="530" width="120" height="8" rx="4" fill="rgba(255,255,255,0.9)"/>

  <rect x="205" y="505" width="175" height="75" rx="8" fill="#312e81"/>
  <rect x="225" y="530" width="135" height="26" rx="13" fill="#7c3aed"/>

  <defs>
    <linearGradient id="bookCover" x1="0%" y1="0%" x2="100%" y2="100%">
      <stop offset="0%" style="stop-color:#7c3aed"/>
      <stop offset="100%" style="stop-color:#4f46e5"/>
    </linearGradient>
    <linearGradient id="authorHeroGrad" x1="0%" y1="0%" x2="100%" y2="100%">
      <stop offset="0%" style="stop-color:#4f46e5"/>
      <stop offset="100%" style="stop-color:#7c3aed"/>
    </linearGradient>
    <linearGradient id="authorCtaSplit" x1="0%" y1="0%" x2="100%" y2="100%">
      <stop offset="0%" style="stop-color:#7c3aed"/>
      <stop offset="100%" style="stop-color:#4f46e5"/>
    </linearGradient>
  </defs>
</svg>
