<svg width="400" height="600" viewBox="0 0 400 600" fill="none" xmlns="http://www.w3.org/2000/svg">
  <!-- Background - Light -->
  <rect width="400" height="600" fill="#fffbeb"/>

  <!-- Minimal Hero -->
  <circle cx="200" cy="70" r="45" fill="#fef3c7"/>
  <circle cx="200" cy="70" r="43" stroke="#f59e0b" stroke-width="2" fill="none"/>
  <rect x="110" y="130" width="180" height="12" rx="6" fill="#1e293b"/>
  <rect x="130" y="150" width="140" height="7" rx="3" fill="#64748b"/>

  <!-- Simple Stats -->
  <rect x="50" y="185" width="90" height="45" rx="6" fill="white" stroke="#fde68a" stroke-width="1"/>
  <rect x="155" y="185" width="90" height="45" rx="6" fill="white" stroke="#fde68a" stroke-width="1"/>
  <rect x="260" y="185" width="90" height="45" rx="6" fill="white" stroke="#fde68a" stroke-width="1"/>

  <!-- Topic Cards -->
  <rect x="40" y="255" width="90" height="7" rx="3" fill="#f59e0b"/>

  <rect x="40" y="275" width="320" height="55" rx="8" fill="white" stroke="#fde68a" stroke-width="1"/>
  <rect x="60" y="292" width="140" height="6" rx="3" fill="#1e293b"/>
  <rect x="60" y="307" width="240" height="5" rx="2" fill="#94a3b8"/>

  <rect x="40" y="340" width="320" height="55" rx="8" fill="white" stroke="#fde68a" stroke-width="1"/>
  <rect x="60" y="357" width="120" height="6" rx="3" fill="#1e293b"/>
  <rect x="60" y="372" width="220" height="5" rx="2" fill="#94a3b8"/>

  <rect x="40" y="405" width="320" height="55" rx="8" fill="white" stroke="#fde68a" stroke-width="1"/>
  <rect x="60" y="422" width="160" height="6" rx="3" fill="#1e293b"/>
  <rect x="60" y="437" width="200" height="5" rx="2" fill="#94a3b8"/>

  <!-- CTA -->
  <rect x="40" y="485" width="320" height="95" rx="12" fill="url(#speakerMinimalCta)"/>
  <rect x="100" y="515" width="200" height="10" rx="5" fill="rgba(255,255,255,0.95)"/>
  <rect x="130" y="535" width="140" height="7" rx="3" fill="rgba(255,255,255,0.6)"/>
  <rect x="140" y="555" width="120" height="30" rx="15" fill="white"/>

  <defs>
    <linearGradient id="speakerMinimalCta" x1="0%" y1="0%" x2="100%" y2="100%">
      <stop offset="0%" style="stop-color:#f59e0b"/>
      <stop offset="100%" style="stop-color:#ef4444"/>
    </linearGradient>
  </defs>
</svg>
