<svg width="400" height="600" viewBox="0 0 400 600" fill="none" xmlns="http://www.w3.org/2000/svg">
  <!-- Background -->
  <rect width="400" height="600" fill="#1e1b4b"/>

  <!-- Hero with Book Theme -->
  <rect x="20" y="20" width="360" height="160" rx="12" fill="url(#authorGradient)"/>
  <rect x="170" y="40" width="60" height="80" rx="4" fill="rgba(255,255,255,0.2)"/>
  <rect x="175" y="45" width="50" height="70" fill="rgba(255,255,255,0.3)"/>
  <rect x="100" y="130" width="200" height="10" rx="5" fill="rgba(255,255,255,0.9)"/>
  <rect x="130" y="148" width="140" height="6" rx="3" fill="rgba(255,255,255,0.5)"/>

  <!-- Stats -->
  <rect x="20" y="195" width="360" height="70" rx="8" fill="#312e81"/>
  <rect x="40" y="215" width="75" height="35" rx="4" fill="#3730a3"/>
  <rect x="125" y="215" width="75" height="35" rx="4" fill="#3730a3"/>
  <rect x="210" y="215" width="75" height="35" rx="4" fill="#3730a3"/>
  <rect x="295" y="215" width="70" height="35" rx="4" fill="#3730a3"/>

  <!-- Books/Works Section -->
  <rect x="20" y="280" width="115" height="100" rx="8" fill="#312e81"/>
  <rect x="35" y="295" width="60" height="70" rx="4" fill="#4f46e5"/>
  <rect x="143" y="280" width="115" height="100" rx="8" fill="#312e81"/>
  <rect x="158" y="295" width="60" height="70" rx="4" fill="#4f46e5"/>
  <rect x="266" y="280" width="114" height="100" rx="8" fill="#312e81"/>
  <rect x="281" y="295" width="60" height="70" rx="4" fill="#4f46e5"/>

  <!-- Testimonials -->
  <rect x="20" y="395" width="360" height="90" rx="8" fill="#312e81"/>
  <rect x="40" y="415" width="280" height="6" rx="3" fill="#6366f1"/>
  <rect x="40" y="430" width="320" height="5" rx="2" fill="#4f46e5"/>
  <rect x="40" y="445" width="280" height="5" rx="2" fill="#4f46e5"/>
  <rect x="40" y="465" width="120" height="5" rx="2" fill="#818cf8"/>

  <!-- CTA -->
  <rect x="20" y="500" width="360" height="80" rx="12" fill="url(#authorCta)"/>
  <rect x="80" y="520" width="240" height="10" rx="5" fill="rgba(255,255,255,0.95)"/>
  <rect x="130" y="545" width="140" height="25" rx="12" fill="white"/>

  <defs>
    <linearGradient id="authorGradient" x1="0%" y1="0%" x2="100%" y2="100%">
      <stop offset="0%" style="stop-color:#4f46e5"/>
      <stop offset="100%" style="stop-color:#7c3aed"/>
    </linearGradient>
    <linearGradient id="authorCta" x1="0%" y1="0%" x2="100%" y2="100%">
      <stop offset="0%" style="stop-color:#7c3aed"/>
      <stop offset="100%" style="stop-color:#4f46e5"/>
    </linearGradient>
  </defs>
</svg>
