<svg width="400" height="600" viewBox="0 0 400 600" fill="none" xmlns="http://www.w3.org/2000/svg">
  <!-- Background -->
  <rect width="400" height="600" fill="#1e293b"/>

  <!-- Hero Section - Split Layout -->
  <rect x="20" y="20" width="175" height="200" rx="8" fill="url(#photoGradient)"/>
  <circle cx="107" cy="100" r="50" fill="rgba(255,255,255,0.15)"/>
  <circle cx="107" cy="100" r="40" stroke="rgba(255,255,255,0.3)" stroke-width="2" fill="none"/>

  <rect x="205" y="20" width="175" height="200" rx="8" fill="url(#heroGradient)"/>
  <rect x="225" y="60" width="135" height="10" rx="5" fill="rgba(255,255,255,0.8)"/>
  <rect x="225" y="80" width="100" height="6" rx="3" fill="rgba(255,255,255,0.4)"/>
  <rect x="225" y="100" width="135" height="4" rx="2" fill="rgba(255,255,255,0.3)"/>
  <rect x="225" y="110" width="120" height="4" rx="2" fill="rgba(255,255,255,0.3)"/>
  <rect x="225" y="140" width="50" height="16" rx="8" fill="white"/>
  <rect x="285" y="140" width="50" height="16" rx="8" fill="rgba(255,255,255,0.2)"/>
  <!-- Mini stats in hero -->
  <rect x="225" y="175" width="60" height="30" rx="4" fill="rgba(0,0,0,0.2)"/>
  <rect x="295" y="175" width="60" height="30" rx="4" fill="rgba(0,0,0,0.2)"/>

  <!-- Stats Section -->
  <rect x="20" y="235" width="360" height="70" rx="8" fill="#334155"/>
  <rect x="35" y="255" width="75" height="35" rx="6" fill="#475569"/>
  <rect x="120" y="255" width="75" height="35" rx="6" fill="#475569"/>
  <rect x="205" y="255" width="75" height="35" rx="6" fill="#475569"/>
  <rect x="290" y="255" width="75" height="35" rx="6" fill="#475569"/>

  <!-- Two Column Content -->
  <rect x="20" y="320" width="175" height="120" rx="8" fill="#0f172a"/>
  <rect x="40" y="340" width="80" height="8" rx="4" fill="#6366f1"/>
  <rect x="40" y="358" width="135" height="5" rx="2" fill="#475569"/>
  <rect x="40" y="370" width="125" height="5" rx="2" fill="#475569"/>
  <rect x="40" y="382" width="130" height="5" rx="2" fill="#475569"/>
  <rect x="40" y="394" width="120" height="5" rx="2" fill="#475569"/>
  <rect x="40" y="406" width="110" height="5" rx="2" fill="#475569"/>

  <rect x="205" y="320" width="175" height="120" rx="8" fill="#0f172a"/>
  <rect x="225" y="340" width="100" height="8" rx="4" fill="#8b5cf6"/>
  <rect x="225" y="360" width="135" height="20" rx="4" fill="#334155"/>
  <rect x="225" y="388" width="135" height="20" rx="4" fill="#334155"/>
  <rect x="225" y="416" width="135" height="20" rx="4" fill="#334155"/>

  <!-- Testimonials -->
  <rect x="20" y="455" width="360" height="60" rx="8" fill="#334155"/>
  <rect x="40" y="470" width="320" height="6" rx="3" fill="#64748b"/>
  <rect x="40" y="485" width="280" height="6" rx="3" fill="#64748b"/>
  <rect x="40" y="500" width="100" height="5" rx="2" fill="#8b5cf6"/>

  <!-- CTA Section - Split -->
  <rect x="20" y="530" width="175" height="50" rx="8" fill="url(#ctaGradient)"/>
  <rect x="40" y="548" width="100" height="8" rx="4" fill="rgba(255,255,255,0.9)"/>

  <rect x="205" y="530" width="175" height="50" rx="8" fill="#475569"/>
  <rect x="225" y="545" width="135" height="20" rx="10" fill="#6366f1"/>

  <!-- Gradients -->
  <defs>
    <linearGradient id="photoGradient" x1="0%" y1="0%" x2="100%" y2="100%">
      <stop offset="0%" style="stop-color:#334155"/>
      <stop offset="100%" style="stop-color:#1e293b"/>
    </linearGradient>
    <linearGradient id="heroGradient" x1="0%" y1="0%" x2="100%" y2="100%">
      <stop offset="0%" style="stop-color:#6366f1"/>
      <stop offset="100%" style="stop-color:#8b5cf6"/>
    </linearGradient>
    <linearGradient id="ctaGradient" x1="0%" y1="0%" x2="100%" y2="100%">
      <stop offset="0%" style="stop-color:#ec4899"/>
      <stop offset="100%" style="stop-color:#8b5cf6"/>
    </linearGradient>
  </defs>
</svg>
