<svg xmlns="http://www.w3.org/2000/svg" width="64" height="64" viewBox="0 0 64 64" fill="none">
  <rect width="64" height="64" rx="12" fill="#8B5CF6" opacity="0.1"/>
  <!-- Social network nodes -->
  <circle cx="32" cy="20" r="6" fill="#8B5CF6"/>
  <circle cx="18" cy="32" r="4" fill="#8B5CF6" opacity="0.8"/>
  <circle cx="46" cy="32" r="4" fill="#8B5CF6" opacity="0.8"/>
  <circle cx="24" cy="46" r="4" fill="#8B5CF6" opacity="0.7"/>
  <circle cx="40" cy="46" r="4" fill="#8B5CF6" opacity="0.7"/>
  <!-- Connection lines -->
  <line x1="32" y1="26" x2="22" y2="28" stroke="#8B5CF6" stroke-width="2" opacity="0.6"/>
  <line x1="32" y1="26" x2="42" y2="28" stroke="#8B5CF6" stroke-width="2" opacity="0.6"/>
  <line x1="18" y1="36" x2="24" y2="42" stroke="#8B5CF6" stroke-width="2" opacity="0.6"/>
  <line x1="46" y1="36" x2="40" y2="42" stroke="#8B5CF6" stroke-width="2" opacity="0.6"/>
  <line x1="28" y1="46" x2="36" y2="46" stroke="#8B5CF6" stroke-width="2" opacity="0.6"/>
  <!-- Social icons representation -->
  <rect x="14" y="28" width="8" height="8" rx="2" fill="#FFFFFF"/>
  <rect x="42" y="28" width="8" height="8" rx="2" fill="#FFFFFF"/>
  <rect x="20" y="42" width="8" height="8" rx="2" fill="#FFFFFF"/>
  <rect x="36" y="42" width="8" height="8" rx="2" fill="#FFFFFF"/>
</svg>