<svg width="400" height="600" viewBox="0 0 400 600" fill="none" xmlns="http://www.w3.org/2000/svg">
  <rect width="400" height="600" fill="#f5f3ff"/>

  <!-- Minimal Hero -->
  <rect x="160" y="30" width="80" height="100" rx="6" fill="#e0e7ff"/>
  <rect x="165" y="35" width="70" height="90" fill="#c7d2fe" stroke="#818cf8" stroke-width="1"/>
  <rect x="100" y="145" width="200" height="12" rx="6" fill="#1e1b4b"/>
  <rect x="130" y="165" width="140" height="7" rx="3" fill="#64748b"/>

  <!-- Simple Stats -->
  <rect x="50" y="195" width="90" height="45" rx="6" fill="white" stroke="#c7d2fe" stroke-width="1"/>
  <rect x="155" y="195" width="90" height="45" rx="6" fill="white" stroke="#c7d2fe" stroke-width="1"/>
  <rect x="260" y="195" width="90" height="45" rx="6" fill="white" stroke="#c7d2fe" stroke-width="1"/>

  <!-- Topic Cards -->
  <rect x="40" y="265" width="80" height="7" rx="3" fill="#7c3aed"/>

  <rect x="40" y="285" width="320" height="55" rx="8" fill="white" stroke="#c7d2fe" stroke-width="1"/>
  <rect x="60" y="302" width="140" height="6" rx="3" fill="#1e1b4b"/>
  <rect x="60" y="317" width="240" height="5" rx="2" fill="#94a3b8"/>

  <rect x="40" y="350" width="320" height="55" rx="8" fill="white" stroke="#c7d2fe" stroke-width="1"/>
  <rect x="60" y="367" width="120" height="6" rx="3" fill="#1e1b4b"/>
  <rect x="60" y="382" width="220" height="5" rx="2" fill="#94a3b8"/>

  <rect x="40" y="415" width="320" height="55" rx="8" fill="white" stroke="#c7d2fe" stroke-width="1"/>
  <rect x="60" y="432" width="160" height="6" rx="3" fill="#1e1b4b"/>
  <rect x="60" y="447" width="200" height="5" rx="2" fill="#94a3b8"/>

  <!-- CTA -->
  <rect x="40" y="495" width="320" height="85" rx="12" fill="url(#authorMinimalCta)"/>
  <rect x="100" y="520" width="200" height="10" rx="5" fill="rgba(255,255,255,0.95)"/>
  <rect x="130" y="540" width="140" height="7" rx="3" fill="rgba(255,255,255,0.6)"/>
  <rect x="140" y="555" width="120" height="28" rx="14" fill="white"/>

  <defs>
    <linearGradient id="authorMinimalCta" x1="0%" y1="0%" x2="100%" y2="100%">
      <stop offset="0%" style="stop-color:#4f46e5"/>
      <stop offset="100%" style="stop-color:#7c3aed"/>
    </linearGradient>
  </defs>
</svg>
