<svg width="400" height="600" viewBox="0 0 400 600" fill="none" xmlns="http://www.w3.org/2000/svg">
  <rect width="400" height="600" fill="#1f1f1f"/>

  <rect x="20" y="20" width="175" height="180" rx="8" fill="#2d2d2d"/>
  <circle cx="107" cy="90" r="50" fill="url(#influencerPhoto)"/>
  <rect x="50" y="155" width="115" height="7" rx="3" fill="#ec4899"/>

  <rect x="205" y="20" width="175" height="180" rx="8" fill="url(#influencerHero)"/>
  <rect x="225" y="50" width="130" height="10" rx="5" fill="rgba(255,255,255,0.95)"/>
  <rect x="225" y="70" width="100" height="6" rx="3" fill="rgba(255,255,255,0.6)"/>
  <rect x="225" y="95" width="130" height="4" rx="2" fill="rgba(255,255,255,0.3)"/>
  <rect x="225" y="107" width="110" height="4" rx="2" fill="rgba(255,255,255,0.3)"/>
  <rect x="225" y="135" width="60" height="20" rx="10" fill="white"/>
  <rect x="295" y="135" width="60" height="20" rx="10" fill="rgba(255,255,255,0.2)"/>

  <rect x="20" y="215" width="360" height="55" rx="8" fill="#2d2d2d"/>
  <rect x="40" y="228" width="70" height="28" rx="4" fill="#3d3d3d"/>
  <rect x="125" y="228" width="70" height="28" rx="4" fill="#3d3d3d"/>
  <rect x="210" y="228" width="70" height="28" rx="4" fill="#3d3d3d"/>
  <rect x="295" y="228" width="70" height="28" rx="4" fill="#3d3d3d"/>

  <rect x="20" y="285" width="175" height="130" rx="8" fill="#2d2d2d"/>
  <rect x="40" y="305" width="80" height="7" rx="3" fill="#ec4899"/>
  <rect x="40" y="325" width="135" height="80" rx="6" fill="url(#contentPreview)"/>

  <rect x="205" y="285" width="175" height="130" rx="8" fill="#2d2d2d"/>
  <rect x="225" y="305" width="100" height="7" rx="3" fill="#8b5cf6"/>
  <rect x="225" y="325" width="135" height="18" rx="4" fill="#3d3d3d"/>
  <rect x="225" y="353" width="135" height="18" rx="4" fill="#3d3d3d"/>
  <rect x="225" y="381" width="135" height="18" rx="4" fill="#3d3d3d"/>

  <rect x="20" y="430" width="360" height="65" rx="8" fill="#2d2d2d"/>
  <rect x="40" y="448" width="280" height="5" rx="2" fill="#4a4a4a"/>
  <rect x="40" y="463" width="240" height="5" rx="2" fill="#4a4a4a"/>
  <rect x="40" y="478" width="100" height="5" rx="2" fill="#f472b6"/>

  <rect x="20" y="510" width="175" height="70" rx="8" fill="url(#influencerCtaSplit)"/>
  <rect x="40" y="535" width="120" height="8" rx="4" fill="rgba(255,255,255,0.95)"/>

  <rect x="205" y="510" width="175" height="70" rx="8" fill="#2d2d2d"/>
  <rect x="225" y="535" width="135" height="24" rx="12" fill="url(#buttonGrad)"/>

  <defs>
    <linearGradient id="influencerPhoto" x1="0%" y1="0%" x2="100%" y2="100%">
      <stop offset="0%" style="stop-color:#3d3d3d"/>
      <stop offset="100%" style="stop-color:#2d2d2d"/>
    </linearGradient>
    <linearGradient id="influencerHero" x1="0%" y1="0%" x2="100%" y2="100%">
      <stop offset="0%" style="stop-color:#ec4899"/>
      <stop offset="100%" style="stop-color:#8b5cf6"/>
    </linearGradient>
    <linearGradient id="contentPreview" x1="0%" y1="0%" x2="100%" y2="100%">
      <stop offset="0%" style="stop-color:#ec4899"/>
      <stop offset="100%" style="stop-color:#f472b6"/>
    </linearGradient>
    <linearGradient id="influencerCtaSplit" x1="0%" y1="0%" x2="100%" y2="100%">
      <stop offset="0%" style="stop-color:#8b5cf6"/>
      <stop offset="100%" style="stop-color:#ec4899"/>
    </linearGradient>
    <linearGradient id="buttonGrad" x1="0%" y1="0%" x2="100%" y2="100%">
      <stop offset="0%" style="stop-color:#ec4899"/>
      <stop offset="100%" style="stop-color:#8b5cf6"/>
    </linearGradient>
  </defs>
</svg>
