<svg width="400" height="600" viewBox="0 0 400 600" fill="none" xmlns="http://www.w3.org/2000/svg">
  <!-- Background -->
  <rect width="400" height="600" fill="#1e293b"/>

  <!-- Hero Section -->
  <rect x="20" y="20" width="360" height="140" rx="8" fill="url(#heroGradient)"/>
  <circle cx="200" cy="70" r="35" fill="rgba(255,255,255,0.2)"/>
  <rect x="130" y="115" width="140" height="8" rx="4" fill="rgba(255,255,255,0.6)"/>
  <rect x="150" y="130" width="100" height="6" rx="3" fill="rgba(255,255,255,0.3)"/>

  <!-- Stats Section -->
  <rect x="20" y="175" width="360" height="80" rx="8" fill="#334155"/>
  <rect x="40" y="195" width="70" height="40" rx="6" fill="#475569"/>
  <rect x="125" y="195" width="70" height="40" rx="6" fill="#475569"/>
  <rect x="210" y="195" width="70" height="40" rx="6" fill="#475569"/>
  <rect x="295" y="195" width="70" height="40" rx="6" fill="#475569"/>

  <!-- Topics Section -->
  <rect x="20" y="270" width="360" height="100" rx="8" fill="#0f172a"/>
  <rect x="40" y="290" width="150" height="8" rx="4" fill="#6366f1"/>
  <rect x="40" y="308" width="320" height="6" rx="3" fill="#475569"/>
  <rect x="40" y="322" width="280" height="6" rx="3" fill="#475569"/>
  <rect x="40" y="336" width="300" height="6" rx="3" fill="#475569"/>
  <rect x="40" y="350" width="260" height="6" rx="3" fill="#475569"/>

  <!-- Questions Section -->
  <rect x="20" y="385" width="360" height="90" rx="8" fill="#334155"/>
  <rect x="40" y="405" width="120" height="8" rx="4" fill="#8b5cf6"/>
  <rect x="40" y="423" width="320" height="5" rx="2" fill="#64748b"/>
  <rect x="40" y="435" width="300" height="5" rx="2" fill="#64748b"/>
  <rect x="40" y="447" width="280" height="5" rx="2" fill="#64748b"/>
  <rect x="40" y="459" width="260" height="5" rx="2" fill="#64748b"/>

  <!-- CTA Section -->
  <rect x="20" y="490" width="360" height="90" rx="8" fill="url(#ctaGradient)"/>
  <rect x="100" y="515" width="200" height="12" rx="6" fill="rgba(255,255,255,0.9)"/>
  <rect x="140" y="540" width="120" height="30" rx="15" fill="white"/>

  <!-- Gradients -->
  <defs>
    <linearGradient id="heroGradient" x1="0%" y1="0%" x2="100%" y2="100%">
      <stop offset="0%" style="stop-color:#6366f1"/>
      <stop offset="100%" style="stop-color:#8b5cf6"/>
    </linearGradient>
    <linearGradient id="ctaGradient" x1="0%" y1="0%" x2="100%" y2="100%">
      <stop offset="0%" style="stop-color:#ec4899"/>
      <stop offset="100%" style="stop-color:#8b5cf6"/>
    </linearGradient>
  </defs>
</svg>
