<svg xmlns="http://www.w3.org/2000/svg" width="64" height="64" viewBox="0 0 64 64" fill="none">
  <rect width="64" height="64" rx="12" fill="#8B5CF6" opacity="0.1"/>
  <!-- Guest Profile -->
  <circle cx="32" cy="22" r="8" fill="#8B5CF6"/>
  <path d="M20 42C20 36.4772 24.4772 32 30 32H34C39.5228 32 44 36.4772 44 42V48H20V42Z" fill="#8B5CF6" opacity="0.8"/>
  <!-- Microphone -->
  <rect x="48" y="36" width="4" height="12" rx="2" fill="#8B5CF6" opacity="0.7"/>
  <rect x="46" y="50" width="8" height="2" rx="1" fill="#8B5CF6" opacity="0.7"/>
  <line x1="50" y1="48" x2="50" y2="52" stroke="#8B5CF6" stroke-width="2"/>
  <!-- Introduction text lines -->
  <rect x="12" y="54" width="24" height="2" rx="1" fill="#8B5CF6" opacity="0.6"/>
  <rect x="12" y="58" width="32" height="2" rx="1" fill="#8B5CF6" opacity="0.6"/>
  <!-- Podcast/Guest indicator -->
  <circle cx="16" cy="16" r="3" fill="#8B5CF6" opacity="0.8"/>
  <circle cx="16" cy="16" r="5" stroke="#8B5CF6" stroke-width="1" fill="none" opacity="0.6"/>
  <path d="M14 14L18 16L14 18Z" fill="white"/>
</svg>