<?xml version="1.0" encoding="UTF-8"?>
<svg xmlns="http://www.w3.org/2000/svg" width="80" height="60" viewBox="0 0 80 60" fill="none">
    <rect width="80" height="60" rx="4" fill="#f1f5f9"/>
    <rect x="8" y="16" width="64" height="36" rx="3" fill="white" stroke="#e2e8f0"/>
    <rect x="8" y="12" width="64" height="8" rx="3" fill="#0ea5e9"/>
    <rect x="16" y="8" width="2" height="8" rx="1" fill="#64748b"/>
    <rect x="62" y="8" width="2" height="8" rx="1" fill="#64748b"/>
    <rect x="16" y="24" width="4" height="4" rx="1" fill="#cbd5e1"/>
    <rect x="24" y="24" width="4" height="4" rx="1" fill="#cbd5e1"/>
    <rect x="32" y="24" width="4" height="4" rx="1" fill="#0ea5e9"/>
    <rect x="40" y="24" width="4" height="4" rx="1" fill="#cbd5e1"/>
    <rect x="48" y="24" width="4" height="4" rx="1" fill="#cbd5e1"/>
    <rect x="56" y="24" width="4" height="4" rx="1" fill="#cbd5e1"/>
    <rect x="16" y="32" width="4" height="4" rx="1" fill="#cbd5e1"/>
    <rect x="24" y="32" width="4" height="4" rx="1" fill="#cbd5e1"/>
    <rect x="32" y="32" width="4" height="4" rx="1" fill="#cbd5e1"/>
</svg>